<svg width="75" height="75" viewBox="0 0 75 75" fill="none" xmlns="http://www.w3.org/2000/svg">
<rect width="75" height="75" rx="20" fill="#FFEBF5"/>
<path d="M27.8721 48.4368C27.3218 48.4376 26.7905 48.2359 26.3794 47.8703L15 37.7547L27.0119 27.0766C27.4585 26.6862 28.0414 26.4881 28.6335 26.5255C29.2255 26.5629 29.7788 26.8328 30.1728 27.2763C30.5668 27.7198 30.7696 28.301 30.737 28.8934C30.7044 29.4857 30.4391 30.0412 29.9988 30.4388L21.7705 37.7547L29.3675 44.5057C29.7082 44.8087 29.9487 45.2082 30.0573 45.651C30.1659 46.0939 30.1374 46.5593 29.9755 46.9856C29.8137 47.4119 29.5261 47.779 29.151 48.0382C28.7758 48.2974 28.3308 48.4365 27.8748 48.4371L27.8721 48.4368ZM47.9881 48.4326L60 37.7545L48.6209 27.6389C48.1736 27.2533 47.5925 27.0592 47.0033 27.0985C46.414 27.1378 45.8639 27.4074 45.4718 27.8489C45.0796 28.2905 44.8769 28.8686 44.9074 29.4583C44.938 30.0481 45.1993 30.6022 45.635 31.0008L53.232 37.7545L45.003 45.0677C44.561 45.4648 44.2942 46.0205 44.2606 46.6137C44.227 47.2068 44.4294 47.7892 44.8237 48.2336C45.218 48.678 45.7721 48.9483 46.365 48.9856C46.9579 49.0229 47.5415 48.8241 47.9884 48.4326H47.9881ZM37.4692 51.619L41.967 24.6322C42.0176 24.3401 42.01 24.041 41.9446 23.7519C41.8792 23.4628 41.7573 23.1895 41.5858 22.9477C41.4144 22.7059 41.1968 22.5005 40.9457 22.3431C40.6945 22.1857 40.4147 22.0795 40.1224 22.0307C39.83 21.9819 39.5309 21.9914 39.2422 22.0586C38.9536 22.1258 38.6811 22.2494 38.4403 22.4224C38.1996 22.5953 37.9955 22.8141 37.8397 23.0663C37.6839 23.3184 37.5795 23.5989 37.5325 23.8915L33.0345 50.8783C32.9858 51.1697 32.995 51.4678 33.0615 51.7556C33.128 52.0435 33.2506 52.3154 33.4223 52.5558C33.5939 52.7962 33.8113 53.0005 34.0619 53.1569C34.3125 53.3133 34.5915 53.4188 34.8829 53.4674C35.006 53.4869 35.1304 53.4968 35.255 53.4969C35.7866 53.4961 36.3008 53.3071 36.7063 52.9633C37.1118 52.6196 37.3825 52.1433 37.4702 51.619H37.4692Z" fill="#FF3998"/>
</svg>
