<svg width="75" height="75" viewBox="0 0 75 75" fill="none" xmlns="http://www.w3.org/2000/svg">
<rect width="75" height="75" rx="20" fill="#E8F6FF"/>
<path d="M59.6665 53.2743L40.0385 16.4966C39.7978 16.0446 39.4387 15.6666 38.9996 15.403C38.5606 15.1394 38.0582 15.0001 37.5461 15H37.5433C36.4994 15 35.5432 15.5743 35.0509 16.4937L15.3352 53.2715C15.1046 53.7026 14.9894 54.186 15.0008 54.6748C15.0122 55.1636 15.1498 55.6411 15.4003 56.061C15.6521 56.4799 16.0079 56.8266 16.4332 57.0675C16.8585 57.3084 17.3388 57.4353 17.8276 57.4359H57.1685C57.6573 57.4363 58.138 57.31 58.5635 57.0694C58.989 56.8288 59.3449 56.482 59.5965 56.0628C59.8481 55.6437 59.9868 55.1665 59.9991 54.6778C60.0114 54.1891 59.8968 53.7056 59.6665 53.2743ZM17.8276 54.6068L37.5433 17.8291L57.1713 54.6068H17.8276ZM34.7143 32.0196V40.5068C34.7143 41.2571 35.0123 41.9767 35.5429 42.5072C36.0734 43.0378 36.793 43.3358 37.5433 43.3358C38.2936 43.3358 39.0132 43.0378 39.5438 42.5072C40.0743 41.9767 40.3724 41.2571 40.3724 40.5068V32.0196C40.3724 31.2693 40.0743 30.5497 39.5438 30.0192C39.0132 29.4886 38.2936 29.1906 37.5433 29.1906C36.793 29.1906 36.0734 29.4886 35.5429 30.0192C35.0123 30.5497 34.7143 31.2693 34.7143 32.0196ZM34.7143 48.9487C34.7143 49.3202 34.7874 49.6881 34.9296 50.0313C35.0718 50.3746 35.2802 50.6864 35.5429 50.9491C35.8056 51.2118 36.1174 51.4202 36.4607 51.5624C36.8039 51.7046 37.1718 51.7778 37.5433 51.7778C38.2936 51.7778 39.0132 51.4797 39.5438 50.9491C39.8065 50.6864 40.0148 50.3746 40.157 50.0313C40.2992 49.6881 40.3724 49.3202 40.3724 48.9487C40.3724 48.1984 40.0743 47.4788 39.5438 46.9483C39.0132 46.4177 38.2936 46.1196 37.5433 46.1196C36.793 46.1196 36.0734 46.4177 35.5429 46.9483C35.0123 47.4788 34.7143 48.1984 34.7143 48.9487Z" fill="#3991EF"/>
</svg>
