<svg width="75" height="75" viewBox="0 0 75 75" fill="none" xmlns="http://www.w3.org/2000/svg">
<rect width="75" height="75" rx="20" fill="#E5F8F4"/>
<path d="M46 38C46 38.6 45.5 39 45 39H38V46C38 46.6 37.5 47 37 47C36.5 47 36 46.6 36 46V39H29C28.5 39 28 38.6 28 38C28 37.4 28.5 37 29 37H36V30C36 29.4 36.5 29 37 29C37.5 29 38 29.4 38 30V37H45C45.5 37 46 37.4 46 38Z" fill="#09BA96"/>
<path d="M37 58C26 58 17 49 17 38C17 27 26 18 37 18C41.5 18 45.7 19.5 49.3 22.2C49.7 22.5 49.8 23.2 49.5 23.6C49.2 24 48.5 24.1 48.1 23.8C44.9 21.3 41 20 37 20C27.1 20 19 28.1 19 38C19 47.9 27.1 56 37 56C46.9 56 55 47.9 55 38C55 34.8 54.1 31.6 52.5 28.8C52.2 28.3 52.4 27.7 52.8 27.4C53.3 27.1 53.9 27.3 54.2 27.7C56 30.9 57 34.4 57 38C57 49 48 58 37 58Z" fill="#09BA96"/>
</svg>
