<svg width="66" height="66" viewBox="0 0 66 66" fill="none" xmlns="http://www.w3.org/2000/svg">
<circle cx="33" cy="33" r="33" fill="#FF8C00"/>
<path d="M49.4576 24.3559C50.0181 25.1545 50.1442 26.0583 49.8359 27.0671L44.0563 46.1084C43.7901 47.0051 43.2541 47.7582 42.4485 48.3677C41.6429 48.9772 40.7847 49.2819 39.8739 49.2819H20.4754C19.3965 49.2819 18.3562 48.9071 17.3543 48.1575C16.3525 47.4079 15.6555 46.4867 15.2632 45.3938C14.9269 44.455 14.9129 43.5653 15.2211 42.7247C15.2211 42.6686 15.2422 42.4795 15.2842 42.1572C15.3262 41.8349 15.3542 41.5757 15.3683 41.3796C15.3823 41.2675 15.3612 41.1169 15.3052 40.9277C15.2492 40.7386 15.2281 40.602 15.2422 40.5179C15.2702 40.3638 15.3262 40.2166 15.4103 40.0765C15.4944 39.9364 15.6099 39.7718 15.7571 39.5826C15.9042 39.3935 16.0198 39.2289 16.1038 39.0887C16.4261 38.5563 16.7414 37.9153 17.0496 37.1657C17.3578 36.4161 17.568 35.7751 17.6801 35.2427C17.7221 35.1025 17.7256 34.8924 17.6906 34.6121C17.6556 34.3319 17.6521 34.1358 17.6801 34.0237C17.7221 33.8695 17.8412 33.6734 18.0374 33.4352C18.2336 33.197 18.3526 33.0359 18.3947 32.9518C18.6889 32.4474 18.9832 31.8029 19.2774 31.0183C19.5716 30.2336 19.7468 29.6031 19.8028 29.1267C19.8168 29.0006 19.7993 28.7765 19.7503 28.4542C19.7012 28.1319 19.7047 27.9358 19.7608 27.8657C19.8168 27.6836 19.9709 27.4699 20.2232 27.2247C20.4754 26.9795 20.6295 26.8219 20.6855 26.7518C20.9517 26.3875 21.2495 25.7956 21.5787 24.9759C21.908 24.1562 22.1007 23.4802 22.1567 22.9478C22.1707 22.8357 22.1497 22.657 22.0937 22.4118C22.0376 22.1666 22.0236 21.981 22.0516 21.8549C22.0796 21.7428 22.1427 21.6167 22.2408 21.4766C22.3388 21.3365 22.465 21.1754 22.6191 20.9932C22.7732 20.8111 22.8923 20.6639 22.9764 20.5519C23.0885 20.3837 23.204 20.17 23.3231 19.9108C23.4422 19.6516 23.5473 19.4064 23.6384 19.1752C23.7295 18.9441 23.8416 18.6919 23.9747 18.4186C24.1078 18.1454 24.2444 17.9212 24.3845 17.7461C24.5246 17.571 24.7103 17.4063 24.9414 17.2522C25.1726 17.0981 25.4248 17.0175 25.698 17.0105C25.9713 17.0035 26.304 17.042 26.6963 17.1261L26.6753 17.1892C27.2078 17.0631 27.565 17 27.7472 17H43.741C44.7779 17 45.5765 17.3923 46.137 18.1769C46.6974 18.9616 46.8235 19.8723 46.5153 20.9091L40.7566 39.9504C40.2522 41.6178 39.7513 42.6931 39.2539 43.1765C38.7565 43.6599 37.8563 43.9016 36.5533 43.9016H18.2896C17.9113 43.9016 17.6451 44.0067 17.491 44.2169C17.3368 44.441 17.3298 44.7423 17.4699 45.1206C17.8062 46.1014 18.815 46.5918 20.4964 46.5918H39.8949C40.3013 46.5918 40.6936 46.4832 41.0719 46.266C41.4502 46.0488 41.6954 45.7581 41.8075 45.3938L48.1125 24.6501C48.2106 24.3419 48.2457 23.9426 48.2176 23.4522C48.7501 23.6624 49.1634 23.9636 49.4576 24.3559ZM27.0957 24.3979C27.0396 24.5801 27.0536 24.7377 27.1377 24.8708C27.2218 25.0039 27.3619 25.0705 27.558 25.0705H40.3363C40.5184 25.0705 40.6971 25.0039 40.8722 24.8708C41.0474 24.7377 41.163 24.5801 41.219 24.3979L41.6604 23.0529C41.7164 22.8707 41.7024 22.7131 41.6183 22.58C41.5343 22.4469 41.3942 22.3803 41.198 22.3803H28.4197C28.2376 22.3803 28.0589 22.4469 27.8838 22.58C27.7087 22.7131 27.5931 22.8707 27.537 23.0529L27.0957 24.3979ZM25.3513 29.7783C25.2952 29.9604 25.3092 30.118 25.3933 30.2511C25.4774 30.3842 25.6175 30.4508 25.8136 30.4508H38.5919C38.774 30.4508 38.9527 30.3842 39.1278 30.2511C39.303 30.118 39.4186 29.9604 39.4746 29.7783L39.916 28.4332C39.972 28.251 39.958 28.0934 39.8739 27.9603C39.7899 27.8272 39.6498 27.7606 39.4536 27.7606H26.6753C26.4932 27.7606 26.3145 27.8272 26.1394 27.9603C25.9643 28.0934 25.8487 28.251 25.7926 28.4332L25.3513 29.7783Z" fill="white"/>
</svg>
