<svg width="66" height="66" viewBox="0 0 66 66" fill="none" xmlns="http://www.w3.org/2000/svg">
<circle cx="33" cy="33" r="33" fill="#2D3E50"/>
<path d="M49.5516 29.5325L46.2075 29.2102C45.8574 27.7782 45.2817 26.411 44.502 25.1598L46.6324 22.5873C46.7108 22.4926 46.7513 22.3721 46.7459 22.2493C46.7406 22.1265 46.6898 22.01 46.6034 21.9225L43.1268 18.4012C43.0396 18.313 42.9225 18.2606 42.7986 18.2544C42.6748 18.2482 42.553 18.2886 42.4575 18.3677L39.8813 20.5012C38.6289 19.7256 37.2636 19.1492 35.8343 18.7925L35.512 15.4484C35.5002 15.3257 35.443 15.2117 35.3518 15.1288C35.2605 15.0459 35.1416 15 35.0183 15H30.0263C29.903 15 29.7841 15.0459 29.6928 15.1288C29.6015 15.2117 29.5444 15.3257 29.5326 15.4484L29.2103 18.7925C27.7783 19.1427 26.411 19.7184 25.1599 20.4982L22.5873 18.3678C22.4922 18.289 22.3711 18.2485 22.2478 18.2543C22.1244 18.2601 22.0076 18.3117 21.9203 18.399L18.399 21.9203C18.3117 22.0076 18.2601 22.1244 18.2543 22.2478C18.2485 22.3711 18.289 22.4922 18.3678 22.5873L20.5012 25.1635C19.7256 26.4159 19.1492 27.7812 18.7925 29.2105L15.4484 29.5328C15.3257 29.5446 15.2118 29.6017 15.1289 29.693C15.046 29.7842 15 29.9031 15 30.0264V35.0184C15 35.1417 15.0459 35.2606 15.1288 35.3519C15.2117 35.4432 15.3257 35.5003 15.4484 35.5121L18.7925 35.8344C19.1426 37.2665 19.7183 38.6338 20.498 39.885L18.3676 42.4576C18.2888 42.5527 18.2483 42.6738 18.2541 42.7971C18.2599 42.9205 18.3115 43.0373 18.3988 43.1246L21.9201 46.6459C22.0074 46.7332 22.1242 46.7848 22.2476 46.7906C22.3709 46.7964 22.492 46.7559 22.5871 46.6771L25.1632 44.5438C26.4157 45.3193 27.781 45.8957 29.2103 46.2524L29.5326 49.5965C29.5444 49.7192 29.6015 49.8332 29.6928 49.9161C29.7841 49.999 29.903 50.0449 30.0263 50.0449H35.0183C35.1416 50.0449 35.2605 49.999 35.3518 49.9161C35.443 49.8332 35.5002 49.7192 35.512 49.5965L35.7499 47.1277C36.5073 47.9358 37.4225 48.5797 38.4389 49.0197C39.4553 49.4596 40.5513 49.6862 41.6588 49.6854C46.116 49.6854 49.7422 46.0675 49.7422 41.6205C49.7424 40.5194 49.5163 39.4299 49.0779 38.4198C48.6395 37.4097 47.9981 36.5004 47.1936 35.7486L49.5536 35.5123C49.676 35.5 49.7894 35.4427 49.8719 35.3515C49.9543 35.2603 50 35.1417 50 35.0188V30.0265C50.0001 29.9031 49.9542 29.7842 49.8713 29.6928C49.7884 29.6015 49.6744 29.5443 49.5516 29.5325ZM48.7499 41.6204C48.7499 45.5204 45.5687 48.6933 41.6585 48.6933C40.5138 48.694 39.3859 48.4179 38.3711 47.8885C37.3562 47.3591 36.4844 46.5921 35.83 45.653C35.8044 45.5939 35.7676 45.5403 35.7216 45.4952C35.2084 44.7141 34.8563 43.8385 34.6859 42.9196C34.6065 42.4911 34.5666 42.0562 34.5666 41.6204C34.5675 40.6902 34.7516 39.7694 35.1085 38.9104C35.4654 38.0514 35.9881 37.2712 36.6466 36.6144C37.3052 35.9575 38.0868 35.4369 38.9467 35.0822C39.8066 34.7275 40.7279 34.5458 41.6581 34.5474C45.5687 34.5475 48.7499 37.7204 48.7499 41.6204ZM33.6328 42.5853C33.4309 42.6073 33.2281 42.6233 33.0244 42.6333V41.1772H32.0325V42.6351C31.366 42.6033 30.7044 42.5055 30.0572 42.343L29.9728 39.4996H33.8575C33.5852 40.5042 33.5089 41.5519 33.6328 42.5853ZM42.5891 33.6093C41.2391 33.4536 39.8715 33.6373 38.6105 34.1438V32.669C38.6467 32.2758 38.6004 31.8793 38.4748 31.505C38.3491 31.1306 38.1467 30.7865 37.8806 30.4948C37.6145 30.203 37.2904 29.97 36.9292 29.8105C36.5679 29.651 36.1773 29.5687 35.7824 29.5686H34.5944C34.4683 29.5687 34.3469 29.6169 34.255 29.7033L32.5283 31.3232L30.8691 29.7091C30.7765 29.6191 30.6524 29.5687 30.5233 29.5687H29.2627C28.8678 29.5687 28.4771 29.651 28.1158 29.8104C27.7545 29.9699 27.4304 30.2029 27.1642 30.4947C26.898 30.7864 26.6955 31.1305 26.5698 31.5049C26.4441 31.8793 26.3979 32.2758 26.434 32.6691V38.8726C26.4341 39.334 26.6175 39.7765 26.9438 40.1028C27.27 40.4291 27.7125 40.6126 28.174 40.6128H28.1944C28.4793 40.6095 28.7587 40.5346 29.0069 40.395L29.0557 42.0357C27.1054 41.3224 25.4212 40.0275 24.2304 38.3262C23.0397 36.6249 22.4 34.599 22.3976 32.5224C22.3976 26.9394 26.9391 22.3979 32.5221 22.3979C38.1051 22.3979 42.6466 26.9397 42.6466 32.5224C42.6467 32.8855 42.6275 33.2483 42.5891 33.6093ZM35.1271 34.9384V36.8706C34.7545 37.3782 34.4427 37.9278 34.1982 38.508H29.9433L29.922 37.8005H29.915V34.9384H28.9231V38.8378C28.9268 39.0392 28.8514 39.2341 28.713 39.3806C28.5746 39.5271 28.3843 39.6134 28.183 39.6211C28.084 39.6222 27.9857 39.6037 27.8939 39.5666C27.8022 39.5295 27.7186 39.4745 27.6482 39.405C27.5778 39.3354 27.5219 39.2525 27.4837 39.1612C27.4455 39.0698 27.4258 38.9718 27.4258 38.8728V32.6452C27.4258 32.6284 27.4249 32.6117 27.4232 32.5951C27.3972 32.3379 27.4254 32.0782 27.506 31.8326C27.5866 31.587 27.7178 31.3611 27.8911 31.1694C28.0644 30.9776 28.276 30.8244 28.5122 30.7195C28.7484 30.6146 29.004 30.5604 29.2625 30.5605H30.3217L32.1741 32.362C32.2654 32.4521 32.388 32.5033 32.5162 32.505C32.6445 32.5066 32.7684 32.4585 32.8619 32.3707L34.7909 30.5605H35.7828C36.0413 30.5605 36.2968 30.6147 36.533 30.7196C36.7692 30.8245 36.9807 30.9778 37.154 31.1695C37.3272 31.3612 37.4584 31.5872 37.5389 31.8327C37.6195 32.0783 37.6476 32.338 37.6215 32.5951C37.6198 32.6117 37.619 32.6284 37.619 32.6452V34.6266C37.0773 34.9392 36.574 35.3141 36.1194 35.7437V34.9384H35.1271ZM49.0081 34.57L46.0678 34.8646C45.3018 34.3648 44.4563 33.9992 43.5674 33.7835C43.6148 33.3648 43.6387 32.9438 43.6389 32.5224C43.6389 26.3927 38.652 21.406 32.5225 21.406C26.3929 21.406 21.4058 26.3927 21.4058 32.5224C21.4058 38.6521 26.3926 43.6388 32.5222 43.6388C32.9531 43.6387 33.3836 43.6138 33.8116 43.5644C34.0247 44.4267 34.3798 45.2475 34.8624 45.9931L34.5676 49.0527H30.4768L30.1634 45.8016C30.1533 45.697 30.1102 45.5982 30.0403 45.5196C29.9704 45.441 29.8774 45.3867 29.7746 45.3645C28.2143 45.0177 26.7296 44.3914 25.3924 43.5159C25.3038 43.4588 25.1993 43.4313 25.0941 43.4376C24.9888 43.4439 24.8883 43.4835 24.8072 43.5507L22.3023 45.625L19.4196 42.7425L21.4939 40.238C21.562 40.1558 21.6017 40.0539 21.6072 39.9473C21.6128 39.8408 21.5838 39.7353 21.5246 39.6465C20.6435 38.315 20.018 36.831 19.6801 35.2705C19.6579 35.1677 19.6035 35.0747 19.5249 35.0048C19.4464 34.9349 19.3476 34.8918 19.2429 34.8817L15.9919 34.568V30.4769L19.2429 30.1635C19.3476 30.1534 19.4464 30.1103 19.5249 30.0404C19.6035 29.9705 19.6579 29.8775 19.6801 29.7747C20.0269 28.2144 20.6531 26.7297 21.5286 25.3924C21.5858 25.3039 21.6132 25.1994 21.607 25.0941C21.6007 24.9889 21.5611 24.8884 21.4938 24.8072L19.4196 22.3023L22.3022 19.4197L24.8071 21.494C24.8893 21.562 24.9912 21.6018 25.0977 21.6073C25.2043 21.6128 25.3098 21.5839 25.3985 21.5247C26.7301 20.6436 28.214 20.0181 29.7745 19.6802C29.8773 19.6579 29.9704 19.6036 30.0403 19.525C30.1102 19.4464 30.1533 19.3477 30.1634 19.243L30.4767 15.992H34.5678L34.8812 19.243C34.8913 19.3477 34.9344 19.4464 35.0043 19.525C35.0742 19.6036 35.1672 19.6579 35.27 19.6802C36.8303 20.0269 38.315 20.6532 39.6523 21.5287C39.7409 21.5859 39.8454 21.6133 39.9506 21.607C40.0559 21.6008 40.1564 21.5612 40.2375 21.4939L42.7401 19.4215L45.5823 22.3001L43.5064 24.8071C43.4383 24.8893 43.3986 24.9912 43.393 25.0977C43.3875 25.2043 43.4165 25.3098 43.4757 25.3985C44.3568 26.7301 44.9823 28.214 45.3202 29.7745C45.3424 29.8773 45.3968 29.9704 45.4753 30.0403C45.5539 30.1102 45.6527 30.1533 45.7573 30.1634L49.0081 30.4768V34.57Z" fill="white"/>
<path d="M41.8255 37.1545C41.6939 37.1545 41.5678 37.2068 41.4748 37.2998C41.3818 37.3928 41.3295 37.5189 41.3295 37.6505V41.6191L39.3971 43.5515C39.304 43.6445 39.2518 43.7707 39.2518 43.9022C39.2518 44.0338 39.304 44.1599 39.3971 44.2529C39.4901 44.3459 39.6162 44.3982 39.7478 44.3982C39.8793 44.3982 40.0055 44.3459 40.0985 44.2529L42.1762 42.1752C42.2223 42.1291 42.2588 42.0744 42.2837 42.0143C42.3087 41.9541 42.3215 41.8896 42.3215 41.8245V37.6504C42.3215 37.5853 42.3086 37.5208 42.2837 37.4606C42.2588 37.4004 42.2222 37.3458 42.1762 37.2997C42.1301 37.2537 42.0754 37.2172 42.0153 37.1922C41.9551 37.1673 41.8906 37.1545 41.8255 37.1545ZM32.4433 23.1651C31.7136 23.1659 31.014 23.4561 30.4981 23.9721C29.9821 24.4881 29.6918 25.1877 29.691 25.9174V26.8199C29.691 27.5499 29.981 28.25 30.4971 28.7661C31.0133 29.2823 31.7134 29.5723 32.4433 29.5723C33.1733 29.5723 33.8734 29.2823 34.3895 28.7661C34.9057 28.25 35.1956 27.5499 35.1956 26.8199V25.9174C35.1948 25.1877 34.9046 24.4881 34.3886 23.9721C33.8726 23.4561 33.173 23.1659 32.4433 23.1651ZM34.2037 26.8199C34.2032 27.2867 34.0176 27.7341 33.6875 28.0642C33.3575 28.3942 32.9101 28.5798 32.4433 28.5804C31.9766 28.5798 31.5291 28.3942 31.1991 28.0642C30.8691 27.7341 30.6834 27.2867 30.6829 26.8199V25.9174C30.6829 25.4505 30.8684 25.0027 31.1985 24.6726C31.5287 24.3424 31.9764 24.157 32.4433 24.157C32.9102 24.157 33.358 24.3424 33.6881 24.6726C34.0183 25.0027 34.2037 25.4505 34.2037 25.9174V26.8199Z" fill="white"/>
</svg>
